<?xml version="1.0" standalone="no"?><!DOCTYPE svg PUBLIC "-//W3C//DTD SVG 1.1//EN" "http://www.w3.org/Graphics/SVG/1.1/DTD/svg11.dtd"><svg t="1627030266243" class="icon" viewBox="0 0 1024 1024" version="1.1" xmlns="http://www.w3.org/2000/svg" p-id="4435" xmlns:xlink="http://www.w3.org/1999/xlink" width="200" height="200"><defs><style type="text/css">@font-face { font-family: "feedback-iconfont"; src: url("//at.alicdn.com/t/font_1031158_1uhr8ri0pk5.eot?#iefix") format("embedded-opentype"), url("//at.alicdn.com/t/font_1031158_1uhr8ri0pk5.woff2") format("woff2"), url("//at.alicdn.com/t/font_1031158_1uhr8ri0pk5.woff") format("woff"), url("//at.alicdn.com/t/font_1031158_1uhr8ri0pk5.ttf") format("truetype"), url("//at.alicdn.com/t/font_1031158_1uhr8ri0pk5.svg#iconfont") format("svg"); }
</style></defs><path d="M641.76 384.096l205.216-204.512-0.704 115.904c-0.288 9.6 7.488 18.08 17.088 17.824h12.288c9.6-0.288 17.664-5.92 17.824-15.68l0.576-172.576 0.288-9.184c0.128-4.8-0.992-9.184-4.096-12.288s-7.36-5.088-12.288-4.96l-8.768 0.128c-0.128 0-0.288 0-0.416 0.128L697.6 98.176a18.464 18.464 0 0 0-17.824 17.952v12.288a19.52 19.52 0 0 0 20.064 17.824l112.8 0.288-204.672 203.808a23.872 23.872 0 0 0 0 33.792 23.648 23.648 0 0 0 33.792 0z m-258.656 192.8l-205.376 203.808 0.704-115.328c0.288-9.6-7.488-18.08-17.12-17.824h-12.992c-9.6 0.288-17.664 5.952-17.824 15.68l-0.576 172.704-0.288 9.184c-0.128 4.8 0.992 9.184 4.096 12.288s7.36 5.088 12.288 4.96l8.768-0.128c0.128 0 0.288 0 0.416-0.128l171.872 0.704a18.464 18.464 0 0 0 17.824-17.952v-12.288a19.52 19.52 0 0 0-20.064-17.824l-112.8-0.288 204.512-203.808a23.872 23.872 0 0 0 0-33.792 23.296 23.296 0 0 0-33.504 0z m510.944 259.072l-0.416-172.704c-0.288-9.6-8.192-15.392-17.824-15.68h-12.288c-9.6-0.288-17.248 8.192-17.12 17.824l0.704 115.904-205.376-204.384a23.872 23.872 0 1 0-33.792 33.792l204.512 203.808-112.8 0.288c-9.6-0.288-18.528 6.496-20.064 17.824v12.288c0.288 9.6 8.192 17.664 17.824 17.952l171.168-0.704c0.128 0 0.288 0.128 0.416 0.128l8.768 0.128a16.192 16.192 0 0 0 12.288-4.96c3.104-3.104 4.224-7.488 4.096-12.288l-0.128-9.184zM212.224 146.496l112.8-0.288c9.6 0.288 18.528-6.496 20.064-17.824v-12.288a18.656 18.656 0 0 0-17.824-17.952l-172 0.704c-0.128 0-0.288-0.128-0.416-0.128l-8.768-0.128a16.192 16.192 0 0 0-12.288 4.96 16.064 16.064 0 0 0-4.096 12.288l0.288 9.184 0.416 172.704c0.128 9.6 8.192 15.392 17.824 15.68h12.992c9.6 0.288 17.248-8.192 17.088-17.824l-0.576-115.328 205.216 203.968a23.872 23.872 0 1 0 33.792-33.792L212.224 146.496z m0 0" p-id="4436" fill="#2c2c2c"></path></svg>